<svg width="505" height="505" viewBox="0 0 505 505" fill="none" xmlns="http://www.w3.org/2000/svg">
<g clip-path="url(#clip0_4120_6146)">
<path d="M426.187 52.5472C339.383 -21.3308 208.965 -17.3288 126.95 64.6852C44.944 146.7 40.942 277.102 114.82 363.914L426.187 52.5472Z" fill="url(#paint0_linear_4120_6146)"/>
<path d="M126.95 64.6849C44.944 146.7 40.942 277.102 114.82 363.914L426.187 52.5469" fill="url(#paint1_linear_4120_6146)"/>
<path d="M389.299 140.194L77.9319 451.56C164.744 525.453 295.146 521.452 377.161 439.437C459.176 357.422 463.185 227.021 389.299 140.194Z" fill="url(#paint2_linear_4120_6146)"/>
<path d="M377.161 439.438C459.176 357.424 463.185 227.021 389.299 140.194L77.9319 451.56" fill="url(#paint3_linear_4120_6146)"/>
</g>
<defs>
<linearGradient id="paint0_linear_4120_6146" x1="614.392" y1="428.89" x2="-64.3765" y2="176.441" gradientUnits="userSpaceOnUse">
<stop stop-color="#757274"/>
<stop offset="0.519" stop-color="#2A2829"/>
<stop offset="1" stop-color="#8C8C8C"/>
</linearGradient>
<linearGradient id="paint1_linear_4120_6146" x1="614.392" y1="419.507" x2="-35.4731" y2="137.019" gradientUnits="userSpaceOnUse">
<stop stop-color="#757274"/>
<stop offset="0.519" stop-color="#2A2829"/>
<stop offset="1" stop-color="#8C8C8C"/>
</linearGradient>
<linearGradient id="paint2_linear_4120_6146" x1="260.552" y1="137.172" x2="258.614" y2="507.94" gradientUnits="userSpaceOnUse">
<stop offset="0.012" stop-color="#659F00"/>
<stop offset="0.65" stop-color="#79B316"/>
<stop offset="1" stop-color="#8EE100"/>
</linearGradient>
<linearGradient id="paint3_linear_4120_6146" x1="260.552" y1="137.609" x2="259.134" y2="454.83" gradientUnits="userSpaceOnUse">
<stop offset="0.012" stop-color="#659F00"/>
<stop offset="0.65" stop-color="#79B316"/>
<stop offset="1" stop-color="#8EE100"/>
</linearGradient>
<clipPath id="clip0_4120_6146">
<rect width="504.121" height="504.121" fill="white"/>
</clipPath>
</defs>
</svg>
