<svg width="505" height="505" viewBox="0 0 505 505" fill="none" xmlns="http://www.w3.org/2000/svg">
<g clip-path="url(#clip0_4120_6137)">
<path d="M252.069 367.002L320.63 435.554L504.123 252.062L320.63 68.5688L252.069 137.121L367.002 252.062L252.069 367.002Z" fill="url(#paint0_linear_4120_6137)"/>
<path d="M367.002 252.062L252.069 367.002L320.63 435.554L504.123 252.062" fill="url(#paint1_linear_4120_6137)"/>
<path d="M137.129 252.062L252.069 137.121L183.509 68.5688L0 252.062L183.509 435.554L252.069 367.002L137.129 252.062Z" fill="url(#paint2_linear_4120_6137)"/>
<path d="M0 252.062L183.509 435.554L252.069 367.002L137.129 252.062" fill="url(#paint3_linear_4120_6137)"/>
<path d="M137.121 252.069L68.5691 320.63L252.062 504.123L435.554 320.63L367.002 252.069L252.062 367.002L137.121 252.069Z" fill="url(#paint4_linear_4120_6137)"/>
<path d="M252.062 367.002L137.121 252.069L68.5691 320.63L252.062 504.123" fill="url(#paint5_linear_4120_6137)"/>
<path d="M252.062 137.129L367.002 252.069L435.554 183.509L252.062 0L68.5691 183.509L137.121 252.069L252.062 137.129Z" fill="url(#paint6_linear_4120_6137)"/>
<path d="M252.062 0L68.5691 183.509L137.121 252.069L252.062 137.129" fill="url(#paint7_linear_4120_6137)"/>
</g>
<defs>
<linearGradient id="paint0_linear_4120_6137" x1="634.477" y1="501.078" x2="132.1" y2="372.749" gradientUnits="userSpaceOnUse">
<stop stop-color="#757274"/>
<stop offset="0.519" stop-color="#2A2829"/>
<stop offset="1" stop-color="#8C8C8C"/>
</linearGradient>
<linearGradient id="paint1_linear_4120_6137" x1="634.477" y1="468.316" x2="210.088" y2="251.5" gradientUnits="userSpaceOnUse">
<stop stop-color="#757274"/>
<stop offset="0.519" stop-color="#2A2829"/>
<stop offset="1" stop-color="#8C8C8C"/>
</linearGradient>
<linearGradient id="paint2_linear_4120_6137" x1="126.492" y1="65.5219" x2="123.648" y2="439.394" gradientUnits="userSpaceOnUse">
<stop offset="0.012" stop-color="#659F00"/>
<stop offset="0.65" stop-color="#79B316"/>
<stop offset="1" stop-color="#8EE100"/>
</linearGradient>
<linearGradient id="paint3_linear_4120_6137" x1="126.492" y1="250.539" x2="125.781" y2="437.482" gradientUnits="userSpaceOnUse">
<stop offset="0.012" stop-color="#659F00"/>
<stop offset="0.65" stop-color="#79B316"/>
<stop offset="1" stop-color="#8EE100"/>
</linearGradient>
<linearGradient id="paint4_linear_4120_6137" x1="625.346" y1="549.126" x2="22.8423" y2="222.865" gradientUnits="userSpaceOnUse">
<stop stop-color="#757274"/>
<stop offset="0.519" stop-color="#2A2829"/>
<stop offset="1" stop-color="#8C8C8C"/>
</linearGradient>
<linearGradient id="paint5_linear_4120_6137" x1="346.958" y1="549.126" x2="-16.0218" y2="450.847" gradientUnits="userSpaceOnUse">
<stop stop-color="#757274"/>
<stop offset="0.519" stop-color="#2A2829"/>
<stop offset="1" stop-color="#8C8C8C"/>
</linearGradient>
<linearGradient id="paint6_linear_4120_6137" x1="252.728" y1="-2.09282" x2="251.806" y2="254.719" gradientUnits="userSpaceOnUse">
<stop offset="0.012" stop-color="#659F00"/>
<stop offset="0.65" stop-color="#79B316"/>
<stop offset="1" stop-color="#8EE100"/>
</linearGradient>
<linearGradient id="paint7_linear_4120_6137" x1="160.649" y1="-2.09282" x2="158.806" y2="254.709" gradientUnits="userSpaceOnUse">
<stop offset="0.012" stop-color="#659F00"/>
<stop offset="0.65" stop-color="#79B316"/>
<stop offset="1" stop-color="#8EE100"/>
</linearGradient>
<clipPath id="clip0_4120_6137">
<rect width="504.123" height="504.123" fill="white"/>
</clipPath>
</defs>
</svg>
